HIERARCHY
ROOT Hips
{
	OFFSET 0.00000 0.00000 0.00000
	CHANNELS 6 Xposition Yposition Zposition Yrotation Zrotation Xrotation 
	JOINT Lumbar
	{
		OFFSET 0 0 0
		CHANNELS 3 Zrotation Xrotation Yrotation
		JOINT Neck
		{
			OFFSET 0.00 0.2701 0.00
			CHANNELS 3 Zrotation Xrotation Yrotation
			End Site
			{
				OFFSET 0.00 0.1379 0.00
			}
		}
		JOINT RightShoulder
		{
			OFFSET 0.0119 0.2289 0.1181
			CHANNELS 3 Zrotation Xrotation Yrotation
			JOINT RightElbow
			{
				OFFSET 0.00 -0.1475 0.00
				CHANNELS 2 Zrotation Yrotation
				JOINT RightWrist
				{
					OFFSET 0.00 -0.1605 0.00
					CHANNELS 2 Zrotation Xrotation
					End Site
					{
						OFFSET 0.0040 -0.1068 0.0006
					}
				}
			}
		}
		JOINT LeftShoulder
		{
			OFFSET 0.0119 0.2289 -0.1181
			CHANNELS 3 Zrotation Xrotation Yrotation
			JOINT LeftElbow
			{
				OFFSET 0.00 -0.1475 0.00
				CHANNELS 2 Zrotation Yrotation
				JOINT LeftWrist
				{
					OFFSET 0.00 -0.1605 0.00
					CHANNELS 2 Zrotation Xrotation
					End Site
					{
						OFFSET 0.0040 -0.1068 -0.0006
					}
				}
			}
		}
	}
	JOINT RightHip
	{
		OFFSET 0.0316 -0.0424 0.0458
		CHANNELS 3 Zrotation Xrotation Yrotation
		JOINT RightKnee
		{
			OFFSET 0.00 -0.2438 0.00
			CHANNELS 1 Zrotation
			JOINT RightAnkle
			{
				OFFSET 0.00 -0.2449 0.00
				CHANNELS 3 Zrotation Xrotation Yrotation
				End Site
				{
					OFFSET 0.1237 -0.0542 0.0051
				}
			}
		}
	}
	JOINT LeftHip
	{
		OFFSET 0.0316 -0.0424 -0.0458
		CHANNELS 3 Zrotation Xrotation Yrotation
		JOINT LeftKnee
		{
			OFFSET 0.00 -0.2438 0.00
			CHANNELS 1 Zrotation
			JOINT LeftAnkle
			{
				OFFSET 0.00 -0.2449 0.00
				CHANNELS 3 Zrotation Xrotation Yrotation
				End Site
				{
					OFFSET 0.1237 -0.0542 -0.0051
				}
			}
		}
	}
}
MOTION
Frames: 32
Frame Time: 0.02
-0.67278 -0.45929 -0.52663 216.64733 1.37951 45.79313 18.80817 5.57522 -32.03305 -23.72679 -29.96598 -2.11994 -46.76636 -45.1923 -52.89415 62.87328 80.96104 -24.11032 -2.90693 36.64664 11.95039 -39.76562 65.33672 -76.20853 0.01952 7.40496 57.2016 5.50199 -36.39795 -122.46682 -7.04934 -3.12859 -3.82453 102.07261 18.44243 7.52596 -121.21217 -9.55437 -1.01871 1.83583
-0.67774 -0.47137 -0.52917 218.35228 3.04626 44.43203 19.30597 4.13921 -33.02633 -24.65368 -31.77938 -2.11994 -47.93129 -41.01975 -55.67554 64.961 80.66911 -21.7431 -2.75775 37.18769 8.60787 -40.9917 63.45599 -66.02858 5.2625 8.61801 60.18165 7.109 -38.44766 -122.63798 -5.35253 -3.41223 -4.41678 104.26878 18.43229 5.58772 -121.74751 -10.01206 -1.15161 1.79488
-0.68298 -0.48322 -0.53145 220.26003 4.70291 42.64226 19.68433 2.83719 -34.07266 -25.74291 -33.07626 -2.11994 -47.47126 -36.54618 -58.22626 66.15454 80.77285 -18.50757 -2.66896 37.96151 5.23111 -42.76456 61.33503 -55.00078 10.49771 10.22034 63.57021 8.77522 -40.52107 -122.57264 -3.40651 -3.64531 -5.08136 106.88697 18.37183 3.4845 -122.26996 -10.51612 -1.27045 1.76362
-0.68802 -0.49505 -0.53381 222.03538 6.34621 41.10353 20.09642 1.4483 -35.04079 -26.79036 -34.50861 -2.11994 -47.8106 -32.28 -60.81902 67.71912 80.71014 -15.73237 -2.56566 38.58656 1.89634 -44.28044 59.33267 -44.59445 15.63365 11.61647 66.69926 10.36609 -42.52068 -122.61789 -1.70573 -3.84916 -5.61805 109.25734 18.33362 1.50455 -122.78548 -10.99374 -1.39309 1.72876
-0.69343 -0.50747 -0.53634 223.98359 8.06656 39.3211 20.59839 0.15959 -36.24041 -27.70999 -36.35216 -2.11994 -47.87513 -27.70168 -63.67359 69.4343 80.63947 -12.70219 -2.41658 39.40556 -1.57274 -45.83641 57.25979 -33.07823 21.25489 13.14587 70.13303 12.1578 -44.77053 -122.67435 0.54706 -4.26653 -6.54252 111.87789 18.29766 -0.69044 -123.36271 -11.49457 -1.52573 1.69108
-0.69811 -0.51858 -0.53845 225.6172 9.62402 37.94659 20.8815 -1.2969 -36.9648 -28.93043 -37.22148 -2.11994 -48.12799 -23.70282 -65.93702 70.62161 80.659 -9.98304 -2.37273 39.86478 -4.75448 -47.43206 55.3038 -23.75432 25.83774 14.47629 73.03174 13.54744 -46.5116 -122.64288 1.71684 -4.23578 -6.69333 114.07021 18.24581 -2.4709 -123.80507 -11.95729 -1.63447 1.66138
-0.70079 -0.52616 -0.53948 226.35205 10.72649 37.80639 20.61572 -3.31591 -36.4211 -30.95509 -35.5038 -2.11994 -49.35903 -21.43802 -66.52472 70.5854 80.85162 -8.40138 -2.61814 39.35129 -7.22033 -49.06612 53.53632 -20.20317 27.63315 15.29087 74.3556 13.80216 -46.83248 -122.41428 -0.23742 -2.90108 -4.54235 115.00417 18.15469 -3.08549 -123.88138 -12.31048 -1.68168 1.6509
-0.70269 -0.5324 -0.5401 226.75992 11.66557 38.09127 20.12943 -5.4953 -35.38878 -33.27247 -32.82949 -2.11994 -50.82739 -19.76019 -66.54044 70.04633 81.11052 -7.14923 -2.96399 38.45275 -9.37783 -50.71002 51.9293 -18.97781 28.36627 15.8706 75.12854 13.65238 -46.64426 -122.10376 -3.27868 -1.1285 -1.63622 115.48704 18.0506 -3.27296 -123.82051 -12.62249 -1.70527 1.6481
-0.70488 -0.53922 -0.5409 227.3039 12.68548 38.18128 19.72593 -7.5575 -34.5406 -35.44762 -30.60812 -2.11994 -52.15118 -17.7744 -66.88634 69.72699 81.31916 -5.69895 -3.25364 37.67833 -11.6178 -52.30825 50.3816 -17.03139 29.52401 16.47034 76.15161 13.69504 -46.69766 -121.83543 -5.77258 0.38752 0.82523 116.15544 17.95764 -3.64118 -123.81963 -12.94869 -1.73915 1.64195
-0.70738 -0.54618 -0.5417 227.90581 13.68137 38.26587 19.38913 -9.80299 -33.84667 -37.67181 -28.28833 -2.11994 -53.57426 -15.94385 -66.93949 69.4121 81.62878 -4.41796 -3.58916 37.12552 -14.10197 -54.09843 48.28088 -13.68017 30.91404 17.43906 77.18522 13.70391 -46.70896 -121.53937 -8.47555 2.13435 3.70597 116.91628 17.84134 -4.06892 -123.8294 -13.29537 -1.7744 1.63553
-0.70904 -0.55252 -0.54242 228.3091 14.68351 38.46512 18.866 -11.70543 -32.72431 -39.8557 -25.95746 -2.11994 -54.86643 -13.94323 -67.45481 68.98206 81.73682 -2.88012 -3.85334 36.01836 -16.00468 -55.48533 47.35587 -13.76314 31.58513 17.59179 78.06653 13.68566 -46.68597 -121.28334 -11.01385 3.52127 5.90208 117.37781 17.77058 -4.2726 -123.78324 -13.58931 -1.80134 1.6314
-0.70853 -0.55747 -0.54291 228.22262 15.78635 38.90668 17.85429 -12.63076 -30.45607 -41.90372 -23.79514 -2.11994 -55.76184 -11.2475 -69.5145 68.34497 81.28327 -0.50207 -3.8852 33.45891 -16.36757 -55.74176 49.78982 -23.24851 30.37692 15.43112 78.60991 13.69689 -46.70008 -121.16878 -12.75098 3.65395 5.95047 117.06969 17.83351 -3.93068 -123.62747 -13.74453 -1.81159 1.63143
-0.70719 -0.56183 -0.54333 227.95055 16.89287 39.4455 16.66909 -13.20399 -27.78886 -43.89198 -21.66379 -2.11994 -56.52101 -8.37754 -72.03699 67.61619 80.62094 2.13203 -3.84332 30.35745 -16.15729 -55.59178 53.37407 -36.02494 28.50801 12.47718 79.02631 13.69346 -46.69579 -121.09646 -14.30021 3.43563 5.2975 116.48362 17.94134 -3.38325 -123.41834 -13.84827 -1.81428 1.63349
-0.70623 -0.56645 -0.54383 227.77628 17.96947 39.92259 15.58158 -13.93322 -25.35784 -45.87525 -19.54381 -2.11994 -57.33629 -5.64217 -74.26368 66.94174 80.0439 4.61169 -3.84217 27.51221 -16.21581 -55.63477 56.33384 -46.97633 27.04558 9.9618 79.53356 13.69297 -46.69516 -120.99873 -15.99071 3.48081 5.0138 116.05793 18.02674 -2.94937 -123.226 -13.97767 -1.82022 1.63476
-0.70522 -0.57108 -0.54412 227.53357 19.16034 40.48857 14.40438 -14.68588 -22.6773 -48.00242 -17.28279 -2.11994 -58.18459 -2.6918 -76.82806 66.19537 79.50743 7.24159 -3.81482 24.60846 -16.22935 -55.64413 59.72971 -59.39101 25.10778 7.10967 79.88366 13.69427 -46.6968 -120.92406 -17.48694 3.11062 4.54393 115.47354 18.12334 -2.4147 -123.05935 -14.09688 -1.82613 1.63577
-0.70415 -0.57555 -0.54483 227.39398 20.11533 40.88658 13.37863 -15.30284 -20.42914 -49.8145 -15.3353 -2.11994 -58.92727 -0.14194 -78.81034 65.58411 78.83913 9.62302 -3.82227 21.70713 -16.20335 -55.62605 62.48683 -69.51918 24.0043 4.77264 80.53588 13.69343 -46.69574 -120.81269 -19.3242 3.50606 4.28435 115.1588 18.20352 -2.04784 -122.82958 -14.22465 -1.83058 1.63769
-0.70306 -0.57978 -0.54677 227.58117 20.42758 40.80034 12.78789 -15.64093 -19.46617 -50.74532 -14.25375 -2.11994 -59.42679 1.27506 -79.04106 65.3691 77.83156 11.25943 -3.95135 18.91172 -16.21915 -55.63739 63.2119 -72.43039 25.48111 4.06074 82.0704 13.69371 -46.69609 -120.58868 -22.18219 6.18656 4.7811 115.66192 18.26322 -2.18478 -122.42869 -14.39721 -1.83327 1.64169
-0.70196 -0.58385 -0.54912 227.87986 20.50232 40.53978 12.36029 -15.85209 -18.95579 -51.36364 -13.4908 -2.11994 -59.821 2.28261 -78.67853 65.29593 76.70437 12.63725 -4.11596 16.14701 -16.21443 -55.63394 63.25175 -72.93242 27.80425 3.894 83.91025 13.69373 -46.69612 -120.32702 -25.37558 9.62954 5.50799 116.44548 18.29967 -2.50037 -121.96888 -14.57884 -1.8348 1.64649
-0.7009 -0.58794 -0.55123 228.13257 20.67921 40.35369 11.87743 -16.11412 -18.24481 -52.14146 -12.58086 -2.11994 -60.25227 3.4707 -78.61096 65.15968 75.64719 14.13333 -4.25909 13.3902 -16.21367 -55.63346 63.59515 -74.59138 29.67006 3.47332 85.60527 13.69364 -46.696 -120.08349 -28.39162 12.66806 6.12446 117.10164 18.32153 -2.7444 -121.54295 -14.75079 -1.8367 1.65083
-0.69965 -0.59226 -0.55355 228.3627 20.87671 40.18803 11.31351 -16.39243 -17.49804 -52.8468 -11.67771 -2.11994 -60.72393 4.68932 -78.45268 65.01315 74.51136 15.63739 -4.42282 10.51609 -16.21553 -55.63478 64.00965 -76.10929 31.81925 3.05154 87.33203 13.6937 -46.69608 -119.8365 -31.51794 15.94771 6.74619 117.75482 18.44528 -2.9456 -121.08416 -14.94404 -1.83899 1.65565
-0.69881 -0.59604 -0.55553 228.66389 20.97971 39.94124 10.95338 -16.61166 -16.9387 -53.62559 -10.83951 -2.11994 -61.08892 5.7431 -78.33579 64.92413 73.52034 17.05713 -4.55228 7.90807 -16.21436 -55.63395 64.1012 -77.2999 33.58771 2.77112 89.05327 13.69368 -46.69605 -119.58795 -34.48287 18.90013 7.41489 118.47545 18.35805 -3.27455 -120.68167 -15.09622 -1.84031 1.65965
-0.69912 -0.59841 -0.55653 229.17888 20.83683 39.4756 11.17101 -16.69591 -16.7882 -54.71714 -10.07305 -2.11994 -61.17882 6.457 -78.48343 64.95065 72.90323 18.33167 -4.58488 5.96817 -16.21474 -55.63422 63.43791 -78.2047 34.10441 2.75907 90.80633 13.69368 -46.69605 -119.33839 -37.03797 20.85485 8.20868 119.39546 17.62995 -3.97138 -120.44 -15.129 -1.83929 1.66109
-0.69983 -0.60023 -0.55717 229.75503 20.61407 38.94031 11.57981 -16.72694 -16.81262 -55.88675 -9.36675 -2.11994 -61.1666 7.01538 -78.69037 65.03225 72.44793 19.52431 -4.58087 4.30904 -16.21477 -55.63425 62.47325 -78.84074 34.21111 2.87257 92.52368 13.69369 -46.69606 -119.08967 -39.39918 22.43915 9.03557 120.36142 16.70152 -4.78084 -120.25897 -15.12107 -1.83737 1.66169
-0.70034 -0.60227 -0.55795 230.27358 20.45745 38.46152 11.86459 -16.78654 -16.75741 -56.99976 -8.65195 -2.11994 -61.20621 7.63438 -78.86407 65.09478 71.95507 20.73742 -4.5898 2.56266 -16.21464 -55.63415 61.66084 -79.5647 34.50445 2.9249 94.17516 13.69369 -46.69606 -118.84397 -41.7711 24.13317 9.8169 121.25219 15.90716 -5.50104 -120.05647 -15.13457 -1.8359 1.66275
-0.70094 -0.60444 -0.55882 230.91802 20.17081 37.87377 12.30737 -16.82475 -16.71738 -58.19372 -7.86754 -2.11994 -61.22012 8.28219 -79.04235 65.1371 71.30361 22.01304 -4.6157 0.64573 -16.21473 -55.63422 60.76049 -80.35274 34.82493 3.01227 96.1739 13.69369 -46.69606 -118.58176 -44.47619 26.09793 10.73477 122.37544 14.93249 -6.38749 -119.8263 -15.13615 -1.83424 1.66349
-0.70145 -0.6062 -0.55941 231.31799 20.1338 37.49625 12.46985 -16.89435 -16.6826 -59.2383 -7.23974 -2.11994 -61.26353 8.83773 -79.23481 65.23264 71.02553 23.14151 -4.5969 -0.84846 -16.2147 -55.63419 59.9808 -80.97256 34.98135 3.0505 97.44933 13.69369 -46.69606 -118.3557 -46.44348 27.40483 11.37306 123.02979 14.28344 -6.95287 -119.66879 -15.15259 -1.83277 1.6647
-0.70163 -0.60699 -0.55932 230.98708 20.8528 37.73813 11.7635 -17.08413 -16.60817 -59.88232 -7.01526 -2.11994 -61.42404 9.18324 -79.43637 65.46201 71.71148 23.89089 -4.46582 -1.25294 -16.21469 -55.63418 59.60679 -81.21581 34.77517 2.91222 96.62583 13.69369 -46.69606 -118.21988 -46.3618 26.94842 11.23304 122.30699 14.60564 -6.59733 -119.69886 -15.22159 -1.8321 1.66741
-0.70171 -0.60739 -0.55896 230.41466 21.8185 38.19083 10.77634 -17.30441 -16.53294 -60.36959 -6.94706 -2.11994 -61.61633 9.44193 -79.65539 65.74213 72.77142 24.49442 -4.29069 -1.24032 -16.21469 -55.63416 59.36788 -81.3066 34.41569 2.71951 95.09334 13.69369 -46.69606 -118.1221 -45.55316 25.84592 10.80971 121.12194 15.2582 -5.91565 -119.79989 -15.30661 -1.83164 1.67061
-0.70181 -0.60796 -0.55871 229.97958 22.64111 38.5335 9.94885 -17.4977 -16.46319 -60.90923 -6.81561 -2.11994 -61.78757 9.7382 -79.88033 65.99824 73.68116 25.16193 -4.13381 -1.41264 -16.21468 -55.63414 59.07158 -81.46449 34.12867 2.55553 93.95807 13.69369 -46.69606 -118.01358 -45.11501 25.05988 10.51303 120.19465 15.74458 -5.38621 -119.86764 -15.38318 -1.83104 1.67356
-0.70201 -0.60852 -0.55849 229.43203 23.59024 38.93344 8.99407 -17.7436 -16.37792 -61.529 -6.65508 -2.11994 -61.98296 10.03722 -80.05096 66.2609 74.52091 25.83824 -3.98212 -1.59374 -16.21467 -55.63412 58.74852 -81.62092 33.81612 2.37891 92.51075 13.69369 -46.69606 -117.87846 -44.50294 24.16493 10.22402 119.0706 16.29196 -4.84183 -119.94199 -15.46324 -1.83057 1.67659
-0.70198 -0.60902 -0.55816 229.05833 24.33717 39.26539 8.23365 -17.88896 -16.32282 -61.94625 -6.5896 -2.11994 -62.13707 10.31135 -80.33502 66.52054 75.58329 26.46007 -3.81093 -1.66229 -16.21466 -55.63411 58.51592 -81.74774 33.52555 2.21458 91.53826 13.69368 -46.69606 -117.80648 -44.08045 23.34816 9.85443 118.24247 16.79303 -4.25214 -120.01846 -15.54038 -1.82991 1.67958
-0.70127 -0.60947 -0.55758 229.24267 24.45148 39.35607 8.09111 -17.74026 -16.34663 -61.81977 -6.76355 -2.11994 -62.16885 10.54447 -80.9555 66.76535 77.25389 26.99006 -3.58556 -1.513 -16.21466 -55.6341 58.51504 -81.83674 33.33401 2.09082 92.11213 13.69368 -46.69606 -117.91071 -44.38113 22.90544 9.30355 118.37407 17.08931 -3.59457 -120.085 -15.60571 -1.82873 1.68235
